dataset
version=1
nRows=30
nColumns=39
inDegrees=no
endheader
time	sternoclavicular_r2	sternoclavicular_r3	unrotscap_r3	unrotscap_r2	acromioclavicular_r2	acromioclavicular_r3	acromioclavicular_r1	unrothum_r1	unrothum_r3	unrothum_r2	elv_angle	shoulder_elv	shoulder1_r2	shoulder_rot	elbow_flexion	pro_sup	deviation	flexion	cmc_abduction	cmc_flexion	mp_flexion	ip_flexion	mcp2_flexion	mcp2_abduction	pm2_flexion	md2_flexion	mcp3_flexion	mcp3_abduction	pm3_flexion	md3_flexion	mcp4_flexion	mcp4_abduction	pm4_flexion	md4_flexion	mcp5_flexion	mcp5_abduction	pm5_flexion	md5_flexion
0.000000	-0.016478	-0.264629	0.108671	0.095959	0.079743	0.079057	-0.083657	-0.098822	0.067540	0.139555	0.120737	0.027437	0.146525	0.146525	1.089825	0.901278	0.000000	0.000000	0.000000	0.000000	0.000000	0.000000	0.000000	0.000000	0.000000	0.000000	0.000000	0.000000	0.000000	0.000000	0.000000	0.000000	0.000000	0.000000	0.000000	0.000000	0.000000	0.000000
0.005000	-0.016463	-0.264521	0.108605	0.095912	0.079707	0.078998	-0.083615	-0.098788	0.067473	0.139526	0.120696	0.027437	0.146525	0.146525	1.089842	0.903695	0.000000	0.000000	0.000000	0.000000	0.000000	0.000000	0.000000	0.000000	0.000000	0.000000	0.000000	0.000000	0.000000	0.000000	0.000000	0.000000	0.000000	0.000000	0.000000	0.000000	0.000000	0.000000
0.010000	-0.016447	-0.264414	0.108529	0.095864	0.079671	0.078932	-0.083566	-0.098772	0.067421	0.139500	0.120659	0.027437	0.146525	0.146525	1.089838	0.906101	0.000000	0.000000	0.000000	0.000000	0.000000	0.000000	0.000000	0.000000	0.000000	0.000000	0.000000	0.000000	0.000000	0.000000	0.000000	0.000000	0.000000	0.000000	0.000000	0.000000	0.000000	0.000000
0.015000	-0.016432	-0.264306	0.108448	0.095815	0.079636	0.078863	-0.083512	-0.098766	0.067377	0.139477	0.120625	0.027437	0.146525	0.146525	1.089813	0.908496	0.000000	0.000000	0.000000	0.000000	0.000000	0.000000	0.000000	0.000000	0.000000	0.000000	0.000000	0.000000	0.000000	0.000000	0.000000	0.000000	0.000000	0.000000	0.000000	0.000000	0.000000	0.000000
0.020000	-0.016416	-0.264200	0.108365	0.095768	0.079602	0.078793	-0.083457	-0.098765	0.067337	0.139455	0.120594	0.027437	0.146525	0.146525	1.089766	0.910880	0.000000	0.000000	0.000000	0.000000	0.000000	0.000000	0.000000	0.000000	0.000000	0.000000	0.000000	0.000000	0.000000	0.000000	0.000000	0.000000	0.000000	0.000000	0.000000	0.000000	0.000000	0.000000
0.025000	-0.016401	-0.264096	0.108282	0.095723	0.079570	0.078722	-0.083402	-0.098766	0.067301	0.139436	0.120565	0.027437	0.146525	0.146525	1.089698	0.913252	0.000000	0.000000	0.000000	0.000000	0.000000	0.000000	0.000000	0.000000	0.000000	0.000000	0.000000	0.000000	0.000000	0.000000	0.000000	0.000000	0.000000	0.000000	0.000000	0.000000	0.000000	0.000000
0.030000	-0.016386	-0.263993	0.108199	0.095680	0.079541	0.078652	-0.083348	-0.098769	0.067266	0.139419	0.120538	0.027437	0.146525	0.146525	1.089608	0.915612	0.000000	0.000000	0.000000	0.000000	0.000000	0.000000	0.000000	0.000000	0.000000	0.000000	0.000000	0.000000	0.000000	0.000000	0.000000	0.000000	0.000000	0.000000	0.000000	0.000000	0.000000	0.000000
0.035000	-0.016372	-0.263893	0.108118	0.095639	0.079513	0.078582	-0.083294	-0.098772	0.067233	0.139405	0.120514	0.027437	0.146525	0.146525	1.089497	0.917961	0.000000	0.000000	0.000000	0.000000	0.000000	0.000000	0.000000	0.000000	0.000000	0.000000	0.000000	0.000000	0.000000	0.000000	0.000000	0.000000	0.000000	0.000000	0.000000	0.000000	0.000000	0.000000
0.040000	-0.016358	-0.263796	0.108039	0.095602	0.079488	0.078514	-0.083242	-0.098776	0.067202	0.139392	0.120492	0.027437	0.146525	0.146525	1.089365	0.920297	0.000000	0.000000	0.000000	0.000000	0.000000	0.000000	0.000000	0.000000	0.000000	0.000000	0.000000	0.000000	0.000000	0.000000	0.000000	0.000000	0.000000	0.000000	0.000000	0.000000	0.000000	0.000000
0.045000	-0.016344	-0.263702	0.107961	0.095566	0.079466	0.078448	-0.083192	-0.098781	0.067173	0.139382	0.120473	0.027437	0.146525	0.146525	1.089213	0.922622	0.000000	0.000000	0.000000	0.000000	0.000000	0.000000	0.000000	0.000000	0.000000	0.000000	0.000000	0.000000	0.000000	0.000000	0.000000	0.000000	0.000000	0.000000	0.000000	0.000000	0.000000	0.000000
0.050000	-0.016331	-0.263611	0.107886	0.095534	0.079446	0.078383	-0.083143	-0.098786	0.067147	0.139374	0.120457	0.027437	0.146525	0.146525	1.089040	0.924934	0.000000	0.000000	0.000000	0.000000	0.000000	0.000000	0.000000	0.000000	0.000000	0.000000	0.000000	0.000000	0.000000	0.000000	0.000000	0.000000	0.000000	0.000000	0.000000	0.000000	0.000000	0.000000
0.055000	-0.016319	-0.263523	0.107813	0.095505	0.079429	0.078321	-0.083096	-0.098792	0.067122	0.139369	0.120444	0.027437	0.146525	0.146525	1.088848	0.927234	0.000000	0.000000	0.000000	0.000000	0.000000	0.000000	0.000000	0.000000	0.000000	0.000000	0.000000	0.000000	0.000000	0.000000	0.000000	0.000000	0.000000	0.000000	0.000000	0.000000	0.000000	0.000000
0.060000	-0.016307	-0.263439	0.107743	0.095480	0.079415	0.078261	-0.083051	-0.098799	0.067101	0.139366	0.120433	0.027437	0.146525	0.146525	1.088638	0.929521	0.000000	0.000000	0.000000	0.000000	0.000000	0.000000	0.000000	0.000000	0.000000	0.000000	0.000000	0.000000	0.000000	0.000000	0.000000	0.000000	0.000000	0.000000	0.000000	0.000000	0.000000	0.000000
0.065000	-0.016297	-0.263358	0.107677	0.095457	0.079404	0.078203	-0.083009	-0.098806	0.067083	0.139366	0.120426	0.027437	0.146525	0.146525	1.088411	0.931795	0.000000	0.000000	0.000000	0.000000	0.000000	0.000000	0.000000	0.000000	0.000000	0.000000	0.000000	0.000000	0.000000	0.000000	0.000000	0.000000	0.000000	0.000000	0.000000	0.000000	0.000000	0.000000
0.070000	-0.016287	-0.263282	0.107613	0.095438	0.079396	0.078149	-0.082968	-0.098815	0.067068	0.139368	0.120422	0.027437	0.146525	0.146525	1.088167	0.934056	0.000000	0.000000	0.000000	0.000000	0.000000	0.000000	0.000000	0.000000	0.000000	0.000000	0.000000	0.000000	0.000000	0.000000	0.000000	0.000000	0.000000	0.000000	0.000000	0.000000	0.000000	0.000000
0.075000	-0.016277	-0.263210	0.107553	0.095423	0.079391	0.078097	-0.082929	-0.098825	0.067057	0.139373	0.120422	0.027437	0.146525	0.146525	1.087908	0.936303	0.000000	0.000000	0.000000	0.000000	0.000000	0.000000	0.000000	0.000000	0.000000	0.000000	0.000000	0.000000	0.000000	0.000000	0.000000	0.000000	0.000000	0.000000	0.000000	0.000000	0.000000	0.000000
0.080000	-0.016269	-0.263142	0.107497	0.095412	0.079389	0.078050	-0.082893	-0.098836	0.067051	0.139381	0.120425	0.027437	0.146525	0.146525	1.087635	0.938536	0.000000	0.000000	0.000000	0.000000	0.000000	0.000000	0.000000	0.000000	0.000000	0.000000	0.000000	0.000000	0.000000	0.000000	0.000000	0.000000	0.000000	0.000000	0.000000	0.000000	0.000000	0.000000
0.085000	-0.016262	-0.263079	0.107444	0.095404	0.079390	0.078005	-0.082859	-0.098849	0.067049	0.139391	0.120432	0.027437	0.146525	0.146525	1.087351	0.940755	0.000000	0.000000	0.000000	0.000000	0.000000	0.000000	0.000000	0.000000	0.000000	0.000000	0.000000	0.000000	0.000000	0.000000	0.000000	0.000000	0.000000	0.000000	0.000000	0.000000	0.000000	0.000000
0.090000	-0.016255	-0.263021	0.107395	0.095401	0.079394	0.077965	-0.082827	-0.098864	0.067052	0.139404	0.120442	0.027437	0.146525	0.146525	1.087056	0.942960	0.000000	0.000000	0.000000	0.000000	0.000000	0.000000	0.000000	0.000000	0.000000	0.000000	0.000000	0.000000	0.000000	0.000000	0.000000	0.000000	0.000000	0.000000	0.000000	0.000000	0.000000	0.000000
0.095000	-0.016250	-0.262967	0.107350	0.095401	0.079402	0.077929	-0.082798	-0.098882	0.067061	0.139420	0.120456	0.027437	0.146525	0.146525	1.086752	0.945150	0.000000	0.000000	0.000000	0.000000	0.000000	0.000000	0.000000	0.000000	0.000000	0.000000	0.000000	0.000000	0.000000	0.000000	0.000000	0.000000	0.000000	0.000000	0.000000	0.000000	0.000000	0.000000
0.100000	-0.016246	-0.262919	0.107310	0.095406	0.079413	0.077897	-0.082771	-0.098901	0.067076	0.139439	0.120474	0.027437	0.146525	0.146525	1.086442	0.947325	0.000000	0.000000	0.000000	0.000000	0.000000	0.000000	0.000000	0.000000	0.000000	0.000000	0.000000	0.000000	0.000000	0.000000	0.000000	0.000000	0.000000	0.000000	0.000000	0.000000	0.000000	0.000000
0.105000	-0.016243	-0.262875	0.107274	0.095414	0.079427	0.077870	-0.082747	-0.098924	0.067097	0.139460	0.120496	0.027437	0.146525	0.146525	1.086128	0.949485	0.000000	0.000000	0.000000	0.000000	0.000000	0.000000	0.000000	0.000000	0.000000	0.000000	0.000000	0.000000	0.000000	0.000000	0.000000	0.000000	0.000000	0.000000	0.000000	0.000000	0.000000	0.000000
0.110000	-0.016241	-0.262837	0.107243	0.095427	0.079445	0.077848	-0.082725	-0.098950	0.067126	0.139484	0.120522	0.027437	0.146525	0.146525	1.085811	0.951629	0.000000	0.000000	0.000000	0.000000	0.000000	0.000000	0.000000	0.000000	0.000000	0.000000	0.000000	0.000000	0.000000	0.000000	0.000000	0.000000	0.000000	0.000000	0.000000	0.000000	0.000000	0.000000
0.115000	-0.016240	-0.262804	0.107216	0.095445	0.079466	0.077831	-0.082705	-0.098978	0.067161	0.139511	0.120553	0.027437	0.146525	0.146525	1.085494	0.953757	0.000000	0.000000	0.000000	0.000000	0.000000	0.000000	0.000000	0.000000	0.000000	0.000000	0.000000	0.000000	0.000000	0.000000	0.000000	0.000000	0.000000	0.000000	0.000000	0.000000	0.000000	0.000000
0.120000	-0.016240	-0.262776	0.107194	0.095466	0.079491	0.077819	-0.082688	-0.099011	0.067205	0.139541	0.120587	0.027437	0.146525	0.146525	1.085180	0.955869	0.000000	0.000000	0.000000	0.000000	0.000000	0.000000	0.000000	0.000000	0.000000	0.000000	0.000000	0.000000	0.000000	0.000000	0.000000	0.000000	0.000000	0.000000	0.000000	0.000000	0.000000	0.000000
0.125000	-0.016242	-0.262754	0.107177	0.095492	0.079518	0.077812	-0.082673	-0.099047	0.067257	0.139573	0.120626	0.027437	0.146525	0.146525	1.084872	0.957964	0.000000	0.000000	0.000000	0.000000	0.000000	0.000000	0.000000	0.000000	0.000000	0.000000	0.000000	0.000000	0.000000	0.000000	0.000000	0.000000	0.000000	0.000000	0.000000	0.000000	0.000000	0.000000
0.130000	-0.016245	-0.262736	0.107164	0.095522	0.079549	0.077812	-0.082660	-0.099088	0.067317	0.139609	0.120670	0.027437	0.146525	0.146525	1.084572	0.960042	0.000000	0.000000	0.000000	0.000000	0.000000	0.000000	0.000000	0.000000	0.000000	0.000000	0.000000	0.000000	0.000000	0.000000	0.000000	0.000000	0.000000	0.000000	0.000000	0.000000	0.000000	0.000000
0.135000	-0.016250	-0.262725	0.107157	0.095557	0.079584	0.077817	-0.082650	-0.099133	0.067387	0.139647	0.120717	0.027437	0.146525	0.146525	1.084283	0.962102	0.000000	0.000000	0.000000	0.000000	0.000000	0.000000	0.000000	0.000000	0.000000	0.000000	0.000000	0.000000	0.000000	0.000000	0.000000	0.000000	0.000000	0.000000	0.000000	0.000000	0.000000	0.000000
0.140000	-0.016255	-0.262718	0.107155	0.095596	0.079621	0.077828	-0.082642	-0.099183	0.067467	0.139687	0.120770	0.027437	0.146525	0.146525	1.084008	0.964145	0.000000	0.000000	0.000000	0.000000	0.000000	0.000000	0.000000	0.000000	0.000000	0.000000	0.000000	0.000000	0.000000	0.000000	0.000000	0.000000	0.000000	0.000000	0.000000	0.000000	0.000000	0.000000
0.145000	-0.016263	-0.262717	0.107158	0.095640	0.079662	0.077846	-0.082636	-0.099239	0.067557	0.139731	0.120827	0.027437	0.146525	0.146525	1.083750	0.966170	0.000000	0.000000	0.000000	0.000000	0.000000	0.000000	0.000000	0.000000	0.000000	0.000000	0.000000	0.000000	0.000000	0.000000	0.000000	0.000000	0.000000	0.000000	0.000000	0.000000	0.000000	0.000000
